<svg xmlns="http://www.w3.org/2000/svg" viewBox="0 0 1200 440" role="img" aria-label="vakbrein: al je vakmateriaal in, een studiebrein eruit. Rechts een grafiek van 74 gelinkte pagina's rond Examensignalen.">
<style>
.bg{fill:#f6f7f9}.tx{fill:#1b1f29}.dim{fill:#5d6577}.acc{fill:#2f6bd8}.pill{fill:#eef0f4;stroke:#dde1e8}
.ln{stroke:#b8c0cf;stroke-width:1.1}.ln2{stroke:#d3d8e1;stroke-width:.8}
.nodeo{fill:#1b8a66}.nodea{fill:#2f6bd8}.nodec{fill:#8a93a6}.nodew{fill:#d98a1c}.nodee{fill:#b9c0cc}.ring{fill:#f6f7f9;stroke:#5d6577}
.halo{paint-order:stroke;stroke:#f6f7f9;stroke-width:4px;stroke-linejoin:round}.wolk{fill:#2f6bd8;opacity:.07}
text{font-family:-apple-system,BlinkMacSystemFont,"Segoe UI",Inter,system-ui,sans-serif}.mono{font-family:ui-monospace,SFMono-Regular,Menlo,monospace}
@media (prefers-color-scheme:dark){.bg{fill:#12141a}.tx{fill:#e6e8ee}.dim{fill:#9aa1b4}.acc{fill:#6ea8fe}.pill{fill:#212533;stroke:#2c3142}
.ln{stroke:#3d4457}.ln2{stroke:#2a2f3d}.nodeo{fill:#4ec9a0}.nodea{fill:#6ea8fe}.nodec{fill:#8b93a8}.nodew{fill:#f0a64a}.nodee{fill:#4a5163}.ring{fill:#12141a;stroke:#9aa1b4}.halo{stroke:#12141a}.wolk{fill:#6ea8fe;opacity:.07}}
</style>
<defs><clipPath id="rand"><rect width="1200" height="440" rx="20"/></clipPath></defs>
<rect class="bg" width="1200" height="440" rx="20"/>
<g clip-path="url(#rand)"><circle class="wolk" cx="736.7" cy="124.4" r="104.1"/><circle class="wolk" cx="1062.5" cy="149.0" r="122.8"/><circle class="wolk" cx="763.6" cy="350.3" r="111.1"/><circle class="wolk" cx="985.4" cy="320.9" r="87.8"/><circle class="wolk" cx="895.4" cy="67.8" r="73.3"/><line class="ln2" x1="773.0" y1="388.6" x2="751.8" y2="390.4"/><line class="ln" x1="1029.1" y1="161.4" x2="988.7" y2="226.2"/><line class="ln2" x1="799.2" y1="103.1" x2="771.5" y2="43.5"/><line class="ln" x1="898.4" y1="88.9" x2="950.7" y2="40.5"/><line class="ln2" x1="910.8" y1="276.8" x2="956.3" y2="346.2"/><line class="ln2" x1="1015.2" y1="227.9" x2="895.3" y2="322.2"/><line class="ln" x1="1029.1" y1="161.4" x2="1083.6" y2="196.0"/><line class="ln2" x1="1004.5" y1="305.2" x2="1027.3" y2="325.5"/><line class="ln" x1="887.5" y1="215.0" x2="789.5" y2="186.1"/><line class="ln" x1="972.9" y1="302.8" x2="910.8" y2="276.8"/><line class="ln2" x1="834.4" y1="189.4" x2="759.2" y2="204.3"/><line class="ln" x1="755.3" y1="143.5" x2="687.1" y2="112.7"/><line class="ln2" x1="1124.7" y1="96.9" x2="1165.0" y2="70.9"/><line class="ln2" x1="1015.2" y1="227.9" x2="1047.4" y2="187.3"/><line class="ln" x1="1029.1" y1="161.4" x2="1093.0" y2="83.0"/><line class="ln" x1="787.8" y1="328.4" x2="717.3" y2="382.3"/><line class="ln" x1="898.4" y1="88.9" x2="900.6" y2="136.7"/><line class="ln" x1="887.5" y1="215.0" x2="974.0" y2="277.7"/><line class="ln2" x1="834.4" y1="189.4" x2="910.8" y2="276.8"/><line class="ln2" x1="988.7" y1="226.2" x2="880.8" y2="286.9"/><line class="ln" x1="887.5" y1="215.0" x2="799.2" y2="103.1"/><line class="ln" x1="972.9" y1="302.8" x2="944.9" y2="261.7"/><line class="ln2" x1="821.6" y1="221.1" x2="910.8" y2="276.8"/><line class="ln" x1="887.5" y1="215.0" x2="1029.1" y2="161.4"/><line class="ln" x1="755.3" y1="143.5" x2="793.0" y2="157.9"/><line class="ln2" x1="799.2" y1="103.1" x2="745.6" y2="46.0"/><line class="ln" x1="1029.1" y1="161.4" x2="1015.2" y2="227.9"/><line class="ln2" x1="740.6" y1="375.6" x2="751.8" y2="390.4"/><line class="ln" x1="898.4" y1="88.9" x2="878.8" y2="46.2"/><line class="ln" x1="887.5" y1="215.0" x2="1004.5" y2="305.2"/><line class="ln2" x1="789.5" y1="186.1" x2="720.2" y2="172.9"/><line class="ln" x1="972.9" y1="302.8" x2="1028.6" y2="374.7"/><line class="ln2" x1="1004.5" y1="305.2" x2="1069.0" y2="367.4"/><line class="ln2" x1="895.3" y1="322.2" x2="851.3" y2="380.3"/><line class="ln2" x1="799.2" y1="103.1" x2="840.1" y2="52.6"/><line class="ln" x1="755.3" y1="143.5" x2="678.1" y2="84.5"/><line class="ln2" x1="1124.7" y1="96.9" x2="1165.0" y2="50.2"/><line class="ln" x1="787.8" y1="328.4" x2="768.7" y2="281.5"/><line class="ln" x1="1029.1" y1="161.4" x2="993.4" y2="176.6"/><line class="ln" x1="887.5" y1="215.0" x2="787.8" y2="328.4"/><line class="ln" x1="1029.1" y1="161.4" x2="1047.4" y2="187.3"/><line class="ln2" x1="768.7" y1="281.5" x2="687.9" y2="292.8"/><line class="ln2" x1="895.3" y1="322.2" x2="927.8" y2="292.5"/><line class="ln2" x1="690.1" y1="373.2" x2="625.9" y2="387.0"/><line class="ln" x1="887.5" y1="215.0" x2="834.4" y2="189.4"/><line class="ln" x1="972.9" y1="302.8" x2="977.6" y2="332.9"/><line class="ln" x1="755.3" y1="143.5" x2="656.5" y2="107.7"/><line class="ln" x1="755.3" y1="143.5" x2="720.8" y2="119.7"/><line class="ln2" x1="858.3" y1="101.2" x2="878.8" y2="46.2"/><line class="ln" x1="1029.1" y1="161.4" x2="1116.0" y2="147.7"/><line class="ln" x1="787.8" y1="328.4" x2="690.1" y2="373.2"/><line class="ln" x1="898.4" y1="88.9" x2="840.1" y2="52.6"/><line class="ln" x1="1029.1" y1="161.4" x2="1060.3" y2="209.9"/><line class="ln" x1="887.5" y1="215.0" x2="898.4" y2="88.9"/><line class="ln2" x1="988.7" y1="226.2" x2="1060.3" y2="209.9"/><line class="ln2" x1="1004.5" y1="305.2" x2="977.6" y2="332.9"/><line class="ln" x1="972.9" y1="302.8" x2="956.3" y2="346.2"/><line class="ln2" x1="895.3" y1="322.2" x2="876.9" y2="387.3"/><line class="ln" x1="755.3" y1="143.5" x2="789.5" y2="186.1"/><line class="ln" x1="755.3" y1="143.5" x2="720.2" y2="172.9"/><line class="ln" x1="887.5" y1="215.0" x2="939.0" y2="160.8"/><line class="ln2" x1="849.7" y1="158.3" x2="939.0" y2="160.8"/><line class="ln" x1="1029.1" y1="161.4" x2="1124.7" y2="96.9"/><line class="ln" x1="787.8" y1="328.4" x2="713.8" y2="359.9"/><line class="ln" x1="887.5" y1="215.0" x2="768.7" y2="281.5"/><line class="ln" x1="887.5" y1="215.0" x2="944.9" y2="261.7"/><line class="ln2" x1="656.5" y1="107.7" x2="610.0" y2="69.9"/><line class="ln" x1="972.9" y1="302.8" x2="927.8" y2="292.5"/><line class="ln2" x1="910.8" y1="276.8" x2="933.0" y2="365.8"/><line class="ln" x1="755.3" y1="143.5" x2="799.2" y2="103.1"/><line class="ln2" x1="690.1" y1="373.2" x2="713.8" y2="359.9"/><line class="ln" x1="887.5" y1="215.0" x2="958.5" y2="207.6"/><line class="ln" x1="787.8" y1="328.4" x2="880.8" y2="286.9"/><line class="ln" x1="1029.1" y1="161.4" x2="1091.9" y2="118.0"/><line class="ln" x1="887.5" y1="215.0" x2="900.6" y2="136.7"/><line class="ln" x1="972.9" y1="302.8" x2="974.0" y2="277.7"/><line class="ln2" x1="958.5" y1="207.6" x2="910.8" y2="276.8"/><line class="ln2" x1="678.1" y1="84.5" x2="720.8" y2="119.7"/><line class="ln" x1="755.3" y1="143.5" x2="705.7" y2="85.5"/><line class="ln" x1="887.5" y1="215.0" x2="849.7" y2="158.3"/><line class="ln2" x1="993.4" y1="176.6" x2="1051.8" y2="169.1"/><line class="ln2" x1="903.9" y1="38.0" x2="878.8" y2="46.2"/><line class="ln" x1="787.8" y1="328.4" x2="895.3" y2="322.2"/><line class="ln2" x1="950.7" y1="40.5" x2="932.2" y2="38.0"/><line class="ln" x1="755.3" y1="143.5" x2="834.4" y2="189.4"/><line class="ln" x1="755.3" y1="143.5" x2="849.7" y2="158.3"/><line class="ln" x1="787.8" y1="328.4" x2="740.6" y2="375.6"/><line class="ln2" x1="768.7" y1="281.5" x2="692.8" y2="317.4"/><line class="ln" x1="887.5" y1="215.0" x2="972.9" y2="302.8"/><line class="ln" x1="898.4" y1="88.9" x2="903.9" y2="38.0"/><line class="ln2" x1="974.0" y1="277.7" x2="1004.5" y2="305.2"/><line class="ln" x1="755.3" y1="143.5" x2="672.1" y2="151.2"/><line class="ln" x1="755.3" y1="143.5" x2="742.3" y2="85.5"/><line class="ln" x1="787.8" y1="328.4" x2="751.8" y2="390.4"/><line class="ln2" x1="1015.2" y1="227.9" x2="1051.8" y2="169.1"/><line class="ln" x1="887.5" y1="215.0" x2="927.8" y2="292.5"/><line class="ln" x1="898.4" y1="88.9" x2="858.3" y2="101.2"/><line class="ln2" x1="974.0" y1="277.7" x2="1027.3" y2="325.5"/><line class="ln2" x1="793.0" y1="157.9" x2="720.8" y2="119.7"/><line class="ln" x1="755.3" y1="143.5" x2="821.6" y2="221.1"/><line class="ln" x1="887.5" y1="215.0" x2="793.0" y2="157.9"/><line class="ln2" x1="678.1" y1="84.5" x2="622.7" y2="44.8"/><line class="ln2" x1="880.8" y1="286.9" x2="910.8" y2="276.8"/><line class="ln" x1="887.5" y1="215.0" x2="993.4" y2="176.6"/><line class="ln2" x1="1004.5" y1="305.2" x2="1083.9" y2="343.0"/><line class="ln2" x1="799.2" y1="103.1" x2="742.3" y2="85.5"/><line class="ln2" x1="1015.2" y1="227.9" x2="1083.6" y2="196.0"/><line class="ln" x1="1029.1" y1="161.4" x2="939.0" y2="160.8"/><line class="ln" x1="898.4" y1="88.9" x2="932.2" y2="38.0"/><line class="ln" x1="887.5" y1="215.0" x2="755.3" y2="143.5"/><line class="ln2" x1="705.7" y1="85.5" x2="742.3" y2="85.5"/><line class="ln" x1="972.9" y1="302.8" x2="1004.5" y2="305.2"/><line class="ln2" x1="993.4" y1="176.6" x2="1047.4" y2="187.3"/><line class="ln2" x1="690.1" y1="373.2" x2="717.3" y2="382.3"/><line class="ln" x1="787.8" y1="328.4" x2="773.0" y2="388.6"/><line class="ln2" x1="1093.0" y1="83.0" x2="1139.7" y2="43.2"/><line class="ln" x1="1029.1" y1="161.4" x2="958.5" y2="207.6"/><line class="ln2" x1="910.8" y1="276.8" x2="977.6" y2="332.9"/><line class="ln" x1="1029.1" y1="161.4" x2="1051.8" y2="169.1"/><line class="ln2" x1="834.4" y1="189.4" x2="858.3" y2="101.2"/><line class="ln2" x1="705.7" y1="85.5" x2="687.1" y2="112.7"/><line class="ln" x1="972.9" y1="302.8" x2="1027.3" y2="325.5"/><circle class="nodeo" cx="887.5" cy="215.0" r="15"/><circle class="nodea" cx="755.3" cy="143.5" r="10"/><circle class="nodec" cx="834.4" cy="189.4" r="4.6"/><circle class="nodec" cx="656.5" cy="107.7" r="4.6"/><circle class="nodec" cx="672.1" cy="151.2" r="4.6"/><circle class="nodec" cx="789.5" cy="186.1" r="4.6"/><circle class="nodec" cx="821.6" cy="221.1" r="4.6"/><circle class="nodec" cx="799.2" cy="103.1" r="4.6"/><circle class="nodec" cx="793.0" cy="157.9" r="4.6"/><circle class="nodec" cx="705.7" cy="85.5" r="4.6"/><circle class="nodec" cx="678.1" cy="84.5" r="4.6"/><circle class="nodec" cx="849.7" cy="158.3" r="4.6"/><circle class="ring" cx="720.8" cy="119.7" r="5.2" stroke-width="1.6"/><circle class="ring" cx="742.3" cy="85.5" r="5.2" stroke-width="1.6"/><circle class="nodew" cx="720.2" cy="172.9" r="5.2"/><circle class="nodew" cx="687.1" cy="112.7" r="5.2"/><circle class="nodea" cx="1029.1" cy="161.4" r="10"/><circle class="nodec" cx="993.4" cy="176.6" r="4.6"/><circle class="nodec" cx="958.5" cy="207.6" r="4.6"/><circle class="nodec" cx="1116.0" cy="147.7" r="4.6"/><circle class="nodec" cx="988.7" cy="226.2" r="4.6"/><circle class="nodec" cx="1124.7" cy="96.9" r="4.6"/><circle class="nodec" cx="1093.0" cy="83.0" r="4.6"/><circle class="nodec" cx="1091.9" cy="118.0" r="4.6"/><circle class="nodec" cx="1015.2" cy="227.9" r="4.6"/><circle class="nodec" cx="939.0" cy="160.8" r="4.6"/><circle class="ring" cx="1047.4" cy="187.3" r="5.2" stroke-width="1.6"/><circle class="ring" cx="1051.8" cy="169.1" r="5.2" stroke-width="1.6"/><circle class="nodew" cx="1060.3" cy="209.9" r="5.2"/><circle class="nodew" cx="1083.6" cy="196.0" r="5.2"/><circle class="nodea" cx="787.8" cy="328.4" r="10"/><circle class="nodec" cx="880.8" cy="286.9" r="4.6"/><circle class="nodec" cx="773.0" cy="388.6" r="4.6"/><circle class="nodec" cx="895.3" cy="322.2" r="4.6"/><circle class="nodec" cx="768.7" cy="281.5" r="4.6"/><circle class="nodec" cx="740.6" cy="375.6" r="4.6"/><circle class="nodec" cx="690.1" cy="373.2" r="4.6"/><circle class="ring" cx="751.8" cy="390.4" r="5.2" stroke-width="1.6"/><circle class="nodew" cx="713.8" cy="359.9" r="5.2"/><circle class="nodew" cx="717.3" cy="382.3" r="5.2"/><circle class="nodea" cx="972.9" cy="302.8" r="10"/><circle class="nodec" cx="910.8" cy="276.8" r="4.6"/><circle class="nodec" cx="927.8" cy="292.5" r="4.6"/><circle class="nodec" cx="944.9" cy="261.7" r="4.6"/><circle class="nodec" cx="974.0" cy="277.7" r="4.6"/><circle class="nodec" cx="1028.6" cy="374.7" r="4.6"/><circle class="nodec" cx="1004.5" cy="305.2" r="4.6"/><circle class="ring" cx="977.6" cy="332.9" r="5.2" stroke-width="1.6"/><circle class="ring" cx="1027.3" cy="325.5" r="5.2" stroke-width="1.6"/><circle class="nodew" cx="956.3" cy="346.2" r="5.2"/><circle class="nodea" cx="898.4" cy="88.9" r="10"/><circle class="nodec" cx="840.1" cy="52.6" r="4.6"/><circle class="nodec" cx="950.7" cy="40.5" r="4.6"/><circle class="nodec" cx="903.9" cy="38.0" r="4.6"/><circle class="nodec" cx="900.6" cy="136.7" r="4.6"/><circle class="nodec" cx="858.3" cy="101.2" r="4.6"/><circle class="ring" cx="878.8" cy="46.2" r="5.2" stroke-width="1.6"/><circle class="nodew" cx="932.2" cy="38.0" r="5.2"/><circle class="nodee" cx="1139.7" cy="43.2" r="3"/><circle class="nodee" cx="1165.0" cy="50.2" r="3"/><circle class="nodee" cx="610.0" cy="69.9" r="3"/><circle class="nodee" cx="1069.0" cy="367.4" r="3"/><circle class="nodee" cx="687.9" cy="292.8" r="3"/><circle class="nodee" cx="692.8" cy="317.4" r="3"/><circle class="nodee" cx="1165.0" cy="70.9" r="3"/><circle class="nodee" cx="876.9" cy="387.3" r="3"/><circle class="nodee" cx="759.2" cy="204.3" r="3"/><circle class="nodee" cx="745.6" cy="46.0" r="3"/><circle class="nodee" cx="625.9" cy="387.0" r="3"/><circle class="nodee" cx="1083.9" cy="343.0" r="3"/><circle class="nodee" cx="851.3" cy="380.3" r="3"/><circle class="nodee" cx="933.0" cy="365.8" r="3"/><circle class="nodee" cx="771.5" cy="43.5" r="3"/><circle class="nodee" cx="622.7" cy="44.8" r="3"/></g>
<g><text class="tx halo" x="887.5" y="248.0" font-size="15" text-anchor="middle" font-weight="650">Examensignalen</text><text class="tx halo" x="755.3" y="169.5" font-size="13" text-anchor="middle" font-weight="650">Hypothesetoetsen</text><text class="tx halo" x="1029.1" y="187.4" font-size="13" text-anchor="middle" font-weight="650">Beschrijvend</text><text class="tx halo" x="787.8" y="354.4" font-size="13" text-anchor="middle" font-weight="650">Normale verdeling</text><text class="tx halo" x="972.9" y="328.8" font-size="13" text-anchor="middle" font-weight="650">Steekproeven</text><text class="tx halo" x="898.4" y="114.9" font-size="13" text-anchor="middle" font-weight="650">Kansrekening</text><text class="dim halo" x="834.4" y="208.5" font-size="11.5" text-anchor="middle">p-waarde</text><text class="dim halo" x="672.1" y="141.6" font-size="11.5" text-anchor="middle">Type I-fout</text><text class="dim halo" x="678.1" y="103.6" font-size="11.5" text-anchor="middle">Chi-kwadraat</text><text class="dim halo" x="720.2" y="192.6" font-size="11.5" text-anchor="middle">Oef. koffie</text><text class="dim halo" x="993.4" y="167.0" font-size="11.5" text-anchor="middle">Mediaan</text><text class="dim halo" x="1124.7" y="116.0" font-size="11.5" text-anchor="middle">Boxplot</text><text class="dim halo" x="939.0" y="151.2" font-size="11.5" text-anchor="middle">Correlatie</text><text class="dim halo" x="880.8" y="306.0" font-size="11.5" text-anchor="middle">z-score</text><text class="dim halo" x="690.1" y="392.3" font-size="11.5" text-anchor="middle">68-95-99,7</text><text class="dim halo" x="751.8" y="410.1" font-size="11.5" text-anchor="middle">Les 03</text><text class="dim halo" x="910.8" y="267.2" font-size="11.5" text-anchor="middle">Standaardfout</text><text class="dim halo" x="927.8" y="311.6" font-size="11.5" text-anchor="middle">CLS</text><text class="dim halo" x="1004.5" y="295.6" font-size="11.5" text-anchor="middle">Bias</text><text class="dim halo" x="858.3" y="91.6" font-size="11.5" text-anchor="middle">Bayes</text></g>
<text class="tx" x="64" y="170" font-size="76" font-weight="700" letter-spacing="-2">vakbrein</text>
<text class="tx" x="64" y="224" font-size="26">Al je vakmateriaal in, een studiebrein eruit.</text>
<text class="dim" x="64" y="260" font-size="20">Karpathy's LLM Wiki-methode, toegepast op één vak.</text>
<g><rect class="pill" x="64" y="318" width="69" height="30" rx="15"/><text class="acc mono" x="98.5" y="338" font-size="15" text-anchor="middle">nieuw</text><rect class="pill" x="143" y="318" width="78" height="30" rx="15"/><text class="acc mono" x="182.0" y="338" font-size="15" text-anchor="middle">ingest</text><rect class="pill" x="231" y="318" width="96" height="30" rx="15"/><text class="acc mono" x="279.0" y="338" font-size="15" text-anchor="middle">nakijken</text><rect class="pill" x="337" y="318" width="78" height="30" rx="15"/><text class="acc mono" x="376.0" y="338" font-size="15" text-anchor="middle">examen</text><rect class="pill" x="425" y="318" width="114" height="30" rx="15"/><text class="acc mono" x="482.0" y="338" font-size="15" text-anchor="middle">studielaag</text></g>
<g><circle class="nodeo" cx="69" cy="388" r="5"/><text class="dim" x="79" y="392" font-size="13">Examensignalen</text><circle class="nodea" cx="204.2" cy="388" r="5"/><text class="dim" x="214.2" y="392" font-size="13">topic</text><circle class="nodec" cx="273.7" cy="388" r="5"/><text class="dim" x="283.7" y="392" font-size="13">begrip</text><circle class="ring" cx="350.5" cy="388" r="5" stroke-width="1.6"/><text class="dim" x="360.5" y="392" font-size="13">les</text><circle class="nodew" cx="405.4" cy="388" r="5"/><text class="dim" x="415.4" y="392" font-size="13">oefening</text></g>
</svg>